<?xml version="1.0" encoding="UTF-8" standalone="no"?>
<svg
   width="630mm"
   height="297mm"
   viewBox="0 0 2381.1024 1122.5197"
   version="1.1"
   id="svg1"
   xml:space="preserve"
   inkscape:version="1.3.2 (091e20e, 2023-11-25, custom)"
   sodipodi:docname="oer.svg"
   xmlns:inkscape="http://www.inkscape.org/namespaces/inkscape"
   xmlns:sodipodi="http://sodipodi.sourceforge.net/DTD/sodipodi-0.dtd"
   xmlns="http://www.w3.org/2000/svg"
   xmlns:svg="http://www.w3.org/2000/svg"><sodipodi:namedview
     id="namedview1"
     pagecolor="#ffffff"
     bordercolor="#cb4947"
     borderopacity="0.25"
     inkscape:showpageshadow="2"
     inkscape:pageopacity="0.0"
     inkscape:pagecheckerboard="0"
     inkscape:deskcolor="#d1d1d1"
     inkscape:document-units="mm"
     inkscape:zoom="0.333232"
     inkscape:cx="708.2153"
     inkscape:cy="469.64277"
     inkscape:window-width="1366"
     inkscape:window-height="705"
     inkscape:window-x="-8"
     inkscape:window-y="-8"
     inkscape:window-maximized="1"
     inkscape:current-layer="layer1" /><defs
     id="defs1"><symbol
       id="Terminal"><title
         id="title14">Terminal/Interrupt</title><desc
         id="desc14">A terminal point in a flowchart: start, stop, halt, etc.</desc><path
         d="m 35,95 a 20,20 0 0 1 0,-40 h 80 a 20,20 0 0 1 0,40 z"
         style="stroke-width:2"
         id="path14" /></symbol></defs><g
     inkscape:label="Layer 1"
     inkscape:groupmode="layer"
     id="layer1"><g
       id="use1"
       style="fill:none;stroke:#cb4947"
       transform="matrix(0,11.011837,-11.011837,0,1197.7436,-87.03989)"><title
         id="title2">Terminal/Interrupt</title><desc
         id="desc2">A terminal point in a flowchart: start, stop, halt, etc.</desc></g><path
       d="m 1320.2542,292.93201 c 0,-141.98405 121.016,-257.084598 270.297,-257.084598 149.281,0 270.2971,115.100548 270.2971,257.084598 v 536.65575 c 0,141.98406 -121.0161,257.08454 -270.2971,257.08454 -149.281,0 -270.297,-115.10048 -270.297,-257.08454 z"
       style="fill:url(#pattern3);fill-opacity:1;stroke:#cb4947;stroke-width:33.8995;stroke-dasharray:none"
       id="original"
       sodipodi:nodetypes="sssssss"
       inkscape:label="original"><title
         id="title1">original</title></path><path
       d="m 520.25417,292.93201 c 0,-141.98405 121.016,-257.084598 270.297,-257.084598 149.281,0 270.29713,115.100548 270.29713,257.084598 v 536.65575 c 0,141.98406 -121.01613,257.08454 -270.29713,257.08454 -149.281,0 -270.297,-115.10048 -270.297,-257.08454 z"
       style="fill:url(#pattern3);fill-opacity:1;stroke:#cb4947;stroke-width:33.8995;stroke-dasharray:none"
       id="path3"
       sodipodi:nodetypes="sssssss"
       inkscape:label="original"><title
         id="title3">original</title></path></g></svg>
