<?xml version="1.0" encoding="UTF-8" standalone="no"?>
<svg
   width="630mm"
   height="297mm"
   viewBox="0 0 630 297"
   version="1.1"
   id="svg1"
   inkscape:version="1.3.2 (091e20e, 2023-11-25, custom)"
   sodipodi:docname="zep.svg"
   xmlns:inkscape="http://www.inkscape.org/namespaces/inkscape"
   xmlns:sodipodi="http://sodipodi.sourceforge.net/DTD/sodipodi-0.dtd"
   xmlns="http://www.w3.org/2000/svg"
   xmlns:svg="http://www.w3.org/2000/svg">
  <sodipodi:namedview
     id="namedview1"
     pagecolor="#ffffff"
     bordercolor="#73397d"
     borderopacity="0.25"
     inkscape:showpageshadow="2"
     inkscape:pageopacity="0.0"
     inkscape:pagecheckerboard="0"
     inkscape:deskcolor="#d1d1d1"
     inkscape:document-units="mm"
     inkscape:zoom="0.16527824"
     inkscape:cx="444.70463"
     inkscape:cy="650.41834"
     inkscape:window-width="1366"
     inkscape:window-height="705"
     inkscape:window-x="-8"
     inkscape:window-y="-8"
     inkscape:window-maximized="1"
     inkscape:current-layer="layer1" />
  <defs
     id="defs1">
    <clipPath
       clipPathUnits="userSpaceOnUse"
       id="clipPath24">
      <rect
         style="fill:none;stroke:#73397d;stroke-width:0.999999;stroke-linecap:butt;stroke-linejoin:bevel;paint-order:stroke markers fill;stop-color:#73397d"
         id="rect24"
         width="44.999748"
         height="77.937294"
         x="251.53429"
         y="222.73541" />
    </clipPath>
  </defs>
  <g
     inkscape:label="Layer 1"
     inkscape:groupmode="layer"
     id="layer1">
    <path
       style="fill:url(#pattern12);fill-opacity:1;stroke:#73397d;stroke-width:10;stroke-dasharray:none"
       d="m 407.43477,280.99278 c -52.082,-18.03609 -66.08993,-62.23018 -40.24783,-126.97992 16.54928,-41.46609 15.01327,-53.76991 -13.093,-104.879042 -11.53112,-20.968186 7.82134,-39.2765863 41.54378,-39.2985995 66.66177,-0.041525 105.82205,71.6353375 78.02338,142.8216015 -11.09701,28.41734 -10.10737,42.77161 4.90677,71.16611 14.72738,27.85199 15.48847,34.26059 5.57034,46.91075 -13.30178,16.96595 -45.06755,21.21475 -76.70344,10.2591 z"
       id="original"
       sodipodi:nodetypes="ssssssss" />
    <path
       style="fill:url(#pattern12);fill-opacity:1;stroke:#73397d;stroke-width:10;stroke-dasharray:none"
       d="M 195.7681,280.99278 C 143.6861,262.95669 129.67817,218.7626 155.52027,154.01286 172.06955,112.54677 170.53354,100.24295 142.42727,49.133818 130.89615,28.165632 150.24861,9.8572317 183.97105,9.8352185 250.63282,9.7936935 289.7931,81.470556 261.99443,152.65682 c -11.09701,28.41734 -10.10737,42.77161 4.90677,71.16611 14.72738,27.85199 15.48847,34.26059 5.57034,46.91075 -13.30178,16.96595 -45.06755,21.21475 -76.70344,10.2591 z"
       id="path1"
       sodipodi:nodetypes="ssssssss" />
  </g>
</svg>
