<?xml version="1.0" encoding="UTF-8" standalone="no"?>
<!-- Created with Inkscape (http://www.inkscape.org/) -->

<svg
   width="1200mm"
   height="183mm"
   viewBox="0 0 1200 183"
   version="1.1"
   id="svg1"
   inkscape:version="1.3.2 (091e20e, 2023-11-25, custom)"
   sodipodi:docname="logo.svg"
   inkscape:export-filename="logo.svg"
   inkscape:export-xdpi="96"
   inkscape:export-ydpi="96"
   xmlns:inkscape="http://www.inkscape.org/namespaces/inkscape"
   xmlns:sodipodi="http://sodipodi.sourceforge.net/DTD/sodipodi-0.dtd"
   xmlns="http://www.w3.org/2000/svg"
   xmlns:svg="http://www.w3.org/2000/svg">
  <sodipodi:namedview
     id="namedview1"
     pagecolor="#ffffff"
     bordercolor="#000000"
     borderopacity="0.25"
     inkscape:showpageshadow="2"
     inkscape:pageopacity="0.0"
     inkscape:pagecheckerboard="0"
     inkscape:deskcolor="#d1d1d1"
     inkscape:document-units="mm"
     showguides="false"
     inkscape:zoom="0.23265717"
     inkscape:cx="560.91115"
     inkscape:cy="582.402"
     inkscape:window-width="1366"
     inkscape:window-height="697"
     inkscape:window-x="-8"
     inkscape:window-y="-8"
     inkscape:window-maximized="1"
     inkscape:current-layer="layer1" />
  <defs
     id="defs1" />
  <g
     inkscape:label="Calque 1"
     inkscape:groupmode="layer"
     id="layer1">
    <rect
       style="fill:#cb4947;fill-opacity:1;stroke-width:0.264583"
       id="rect1"
       width="182.05107"
       height="182.05107"
       x="3.9245174"
       y="0.65804482"
       ry="44.345776" />
    <rect
       style="fill:#469d66;fill-opacity:1;stroke-width:0.264583"
       id="rect1-0"
       width="182.05107"
       height="182.05107"
       x="415.7764"
       y="0.29060173"
       ry="44.345776" />
    <rect
       style="fill:#73397d;fill-opacity:1;stroke-width:0.264583"
       id="rect1-0-1"
       width="182.05107"
       height="182.05107"
       x="857.27814"
       y="0.6583271"
       ry="44.345776" />
    <path
       style="font-size:176.389px;font-family:Outfit;-inkscape-font-specification:Outfit;fill:#ffffff;stroke-width:0.264583"
       d="m 89.58843,156.99515 q -14.993066,0 -25.752795,-5.11528 -10.583341,-5.11528 -19.226402,-15.34584 l 15.87501,-15.87501 q 5.46806,7.23195 12.700009,11.28889 7.231949,3.88056 17.638901,3.88056 9.348617,0 14.816677,-3.70417 5.64445,-3.70417 5.64445,-10.23056 0,-5.64445 -3.175,-9.17223 -3.17501,-3.52778 -8.466677,-5.99722 -5.115281,-2.46945 -11.465285,-4.40973 -6.173616,-2.11667 -12.52362,-4.762503 -6.173615,-2.645835 -11.465285,-6.526394 -5.115282,-4.056947 -8.290284,-10.230562 -3.175002,-6.350004 -3.175002,-15.875011 0,-11.288896 5.468059,-19.226401 5.46806,-7.937506 14.993066,-12.170842 9.525006,-4.233336 21.519459,-4.233336 12.700009,0 22.930569,4.762503 10.23056,4.762503 16.75696,12.347231 l -15.87501,15.87501 q -5.46806,-5.997226 -11.2889,-8.81945 -5.64445,-2.822224 -12.876397,-2.822224 -8.290283,0 -13.052787,3.175002 -4.762503,3.175002 -4.762503,9.172228 0,5.115281 3.175002,8.290284 3.175002,3.175002 8.290284,5.468059 5.29167,2.293057 11.465285,4.409725 6.350006,2.116668 12.523616,4.762503 6.35001,2.645835 11.46529,6.879172 5.29167,4.233336 8.46667,10.936116 3.175,6.5264 3.175,16.22779 0,17.28612 -12.17084,27.16391 -12.17084,9.87778 -33.33752,9.87778 z m 167.56944,-1.76389 V 31.22979 h 23.9889 v 124.00147 z m 17.6389,0 v -21.16668 h 68.61532 v 21.16668 z m 0,-53.09309 V 81.677046 h 62.44171 v 20.461124 z m 0,-49.741699 V 31.22979 h 67.73338 V 52.396471 Z M 494.40067,155.23126 V 33.875625 h 24.1653 V 155.23126 Z M 454.88953,52.57286 V 31.22979 H 558.0771 v 21.34307 z m 236.53732,102.6584 v -21.34307 h 31.57363 q 11.99446,0 20.9903,-4.93889 8.99584,-5.11528 13.93473,-14.28751 5.11528,-9.17223 5.11528,-21.695847 0,-12.170842 -5.11528,-21.166681 -5.11528,-9.172229 -14.11112,-14.111121 -8.99584,-5.115281 -20.81391,-5.115281 H 690.89769 V 31.22979 h 32.45557 q 13.75835,0 25.40002,4.586114 11.81806,4.586114 20.46112,13.052787 8.81946,8.290283 13.58196,19.579179 4.93889,11.288897 4.93889,24.694462 0,13.405568 -4.93889,24.870848 -4.7625,11.2889 -13.40557,19.75557 -8.64306,8.29028 -20.46112,12.8764 -11.64168,4.58611 -25.22363,4.58611 z m -16.40418,0 V 31.22979 h 23.98891 v 124.00147 z m 234.94996,0 V 31.22979 h 23.9889 v 124.00147 z m 17.6389,0 v -21.34307 h 63.14726 v 21.34307 z m 182.20977,0 V 31.22979 h 23.9889 v 124.00147 z m 17.6389,0 v -21.16668 h 68.6153 v 21.16668 z m 0,-53.09309 V 81.677046 h 62.4417 v 20.461124 z m 0,-49.741699 V 31.22979 h 67.7333 v 21.166681 z"
       id="text1"
       aria-label="S   E   T   D   L   E" />
  </g>
</svg>
